<mxfile host="app.diagrams.net" agent="Mozilla/5.0 (Macintosh; Intel Mac OS X 10.15; rv:134.0) Gecko/20100101 Firefox/134.0" version="25.0.3">
  <diagram id="C5RBs43oDa-KdzZeNtuy" name="Page-1">
    <mxGraphModel dx="2074" dy="1068" grid="1" gridSize="10" guides="1" tooltips="1" connect="1" arrows="1" fold="1" page="1" pageScale="1" pageWidth="827" pageHeight="1169" math="0" shadow="0">
      <root>
        <mxCell id="WIyWlLk6GJQsqaUBKTNV-0" />
        <mxCell id="WIyWlLk6GJQsqaUBKTNV-1" parent="WIyWlLk6GJQsqaUBKTNV-0" />
        <mxCell id="hGQvihbglXmBCSKVw1TI-3" value="" style="edgeStyle=orthogonalEdgeStyle;rounded=0;orthogonalLoop=1;jettySize=auto;html=1;" edge="1" parent="WIyWlLk6GJQsqaUBKTNV-1" source="WIyWlLk6GJQsqaUBKTNV-3" target="hGQvihbglXmBCSKVw1TI-2">
          <mxGeometry relative="1" as="geometry" />
        </mxCell>
        <mxCell id="WIyWlLk6GJQsqaUBKTNV-3" value="跳转&lt;span style=&quot;color:#6a8759;&quot;&gt;api/passport/sso/wework/auth&lt;/span&gt;" style="rounded=1;whiteSpace=wrap;html=1;fontSize=12;glass=0;strokeWidth=1;shadow=0;" parent="WIyWlLk6GJQsqaUBKTNV-1" vertex="1">
          <mxGeometry x="160" y="80" width="240" height="110" as="geometry" />
        </mxCell>
        <mxCell id="hGQvihbglXmBCSKVw1TI-5" value="" style="edgeStyle=orthogonalEdgeStyle;rounded=0;orthogonalLoop=1;jettySize=auto;html=1;" edge="1" parent="WIyWlLk6GJQsqaUBKTNV-1" source="hGQvihbglXmBCSKVw1TI-2" target="hGQvihbglXmBCSKVw1TI-4">
          <mxGeometry relative="1" as="geometry" />
        </mxCell>
        <mxCell id="hGQvihbglXmBCSKVw1TI-6" value="已登录" style="edgeLabel;html=1;align=center;verticalAlign=middle;resizable=0;points=[];" vertex="1" connectable="0" parent="hGQvihbglXmBCSKVw1TI-5">
          <mxGeometry x="-0.0222" relative="1" as="geometry">
            <mxPoint as="offset" />
          </mxGeometry>
        </mxCell>
        <mxCell id="hGQvihbglXmBCSKVw1TI-8" value="" style="edgeStyle=orthogonalEdgeStyle;rounded=0;orthogonalLoop=1;jettySize=auto;html=1;" edge="1" parent="WIyWlLk6GJQsqaUBKTNV-1" source="hGQvihbglXmBCSKVw1TI-2" target="hGQvihbglXmBCSKVw1TI-7">
          <mxGeometry relative="1" as="geometry" />
        </mxCell>
        <mxCell id="hGQvihbglXmBCSKVw1TI-9" value="未登录" style="edgeLabel;html=1;align=center;verticalAlign=middle;resizable=0;points=[];" vertex="1" connectable="0" parent="hGQvihbglXmBCSKVw1TI-8">
          <mxGeometry x="0.0061" y="-3" relative="1" as="geometry">
            <mxPoint as="offset" />
          </mxGeometry>
        </mxCell>
        <mxCell id="hGQvihbglXmBCSKVw1TI-2" value="登录状态检查" style="rhombus;whiteSpace=wrap;html=1;rounded=1;glass=0;strokeWidth=1;shadow=0;" vertex="1" parent="WIyWlLk6GJQsqaUBKTNV-1">
          <mxGeometry x="190" y="270" width="180" height="145" as="geometry" />
        </mxCell>
        <mxCell id="hGQvihbglXmBCSKVw1TI-20" style="edgeStyle=orthogonalEdgeStyle;rounded=0;orthogonalLoop=1;jettySize=auto;html=1;exitX=0.5;exitY=1;exitDx=0;exitDy=0;" edge="1" parent="WIyWlLk6GJQsqaUBKTNV-1" source="hGQvihbglXmBCSKVw1TI-4" target="hGQvihbglXmBCSKVw1TI-19">
          <mxGeometry relative="1" as="geometry" />
        </mxCell>
        <mxCell id="hGQvihbglXmBCSKVw1TI-4" value="跳转到redirectUrl并携带token（session/cookie）" style="rounded=1;whiteSpace=wrap;html=1;glass=0;strokeWidth=1;shadow=0;" vertex="1" parent="WIyWlLk6GJQsqaUBKTNV-1">
          <mxGeometry x="144" y="818.5" width="270" height="73" as="geometry" />
        </mxCell>
        <mxCell id="hGQvihbglXmBCSKVw1TI-12" style="edgeStyle=orthogonalEdgeStyle;rounded=0;orthogonalLoop=1;jettySize=auto;html=1;exitX=0.5;exitY=1;exitDx=0;exitDy=0;" edge="1" parent="WIyWlLk6GJQsqaUBKTNV-1" source="hGQvihbglXmBCSKVw1TI-7" target="hGQvihbglXmBCSKVw1TI-11">
          <mxGeometry relative="1" as="geometry" />
        </mxCell>
        <mxCell id="hGQvihbglXmBCSKVw1TI-7" value="&lt;div&gt;静默授权：needConfirm=false&lt;/div&gt;&lt;div&gt;&lt;br&gt;&lt;/div&gt;&lt;div&gt;将redirectUrl拼接到企微信到OAuth接口，并跳转&lt;/div&gt;" style="whiteSpace=wrap;html=1;rounded=1;glass=0;strokeWidth=1;shadow=0;" vertex="1" parent="WIyWlLk6GJQsqaUBKTNV-1">
          <mxGeometry x="635" y="297.5" width="290" height="90" as="geometry" />
        </mxCell>
        <mxCell id="hGQvihbglXmBCSKVw1TI-10" value="&lt;div align=&quot;left&quot;&gt;旧接口文档：&lt;br&gt;&lt;/div&gt;&lt;div align=&quot;left&quot;&gt;Bug1: &lt;span style=&quot;color:#6a8759;&quot;&gt;snsapi_userinfo -&amp;gt; &lt;/span&gt;snsapi_privateinfo 手动授权&lt;/div&gt;&lt;div align=&quot;left&quot;&gt;Bug2: state长度限制为128字节&lt;/div&gt;&lt;div align=&quot;left&quot;&gt;Bug3: &lt;span style=&quot;color:#6a8759;&quot;&gt;/cgi-bin/user/getuserinfo -&amp;gt; c&lt;/span&gt;gi-bin/auth/getuserinfo&lt;/div&gt;" style="text;html=1;align=left;verticalAlign=middle;whiteSpace=wrap;rounded=0;" vertex="1" parent="WIyWlLk6GJQsqaUBKTNV-1">
          <mxGeometry x="1070" y="210" width="349" height="127.5" as="geometry" />
        </mxCell>
        <mxCell id="hGQvihbglXmBCSKVw1TI-14" value="" style="edgeStyle=orthogonalEdgeStyle;rounded=0;orthogonalLoop=1;jettySize=auto;html=1;" edge="1" parent="WIyWlLk6GJQsqaUBKTNV-1" source="hGQvihbglXmBCSKVw1TI-11" target="hGQvihbglXmBCSKVw1TI-13">
          <mxGeometry relative="1" as="geometry" />
        </mxCell>
        <mxCell id="hGQvihbglXmBCSKVw1TI-11" value="&lt;div&gt;静默授权&lt;/div&gt;&lt;div&gt;手动授权&lt;br&gt;&lt;/div&gt;" style="whiteSpace=wrap;html=1;rounded=1;glass=0;strokeWidth=1;shadow=0;" vertex="1" parent="WIyWlLk6GJQsqaUBKTNV-1">
          <mxGeometry x="650" y="420" width="260" height="80" as="geometry" />
        </mxCell>
        <mxCell id="hGQvihbglXmBCSKVw1TI-16" style="edgeStyle=orthogonalEdgeStyle;rounded=0;orthogonalLoop=1;jettySize=auto;html=1;" edge="1" parent="WIyWlLk6GJQsqaUBKTNV-1" source="hGQvihbglXmBCSKVw1TI-13" target="hGQvihbglXmBCSKVw1TI-15">
          <mxGeometry relative="1" as="geometry" />
        </mxCell>
        <mxCell id="hGQvihbglXmBCSKVw1TI-13" value="&lt;div&gt;携带code&lt;/div&gt;&lt;div&gt;跳转到api/passport&lt;span style=&quot;color:#6a8759;&quot;&gt;/sso/wework/callback&lt;/span&gt;&lt;/div&gt;" style="whiteSpace=wrap;html=1;rounded=1;glass=0;strokeWidth=1;shadow=0;" vertex="1" parent="WIyWlLk6GJQsqaUBKTNV-1">
          <mxGeometry x="650" y="580" width="260" height="80" as="geometry" />
        </mxCell>
        <mxCell id="hGQvihbglXmBCSKVw1TI-18" style="edgeStyle=orthogonalEdgeStyle;rounded=0;orthogonalLoop=1;jettySize=auto;html=1;exitX=0.5;exitY=1;exitDx=0;exitDy=0;entryX=1;entryY=0.5;entryDx=0;entryDy=0;" edge="1" parent="WIyWlLk6GJQsqaUBKTNV-1" source="hGQvihbglXmBCSKVw1TI-15" target="hGQvihbglXmBCSKVw1TI-4">
          <mxGeometry relative="1" as="geometry" />
        </mxCell>
        <mxCell id="hGQvihbglXmBCSKVw1TI-15" value="&lt;div&gt;根据code从微信获取userId&lt;/div&gt;&lt;div&gt;根据userid查询员工后，进行登录&lt;/div&gt;" style="whiteSpace=wrap;html=1;rounded=1;glass=0;strokeWidth=1;shadow=0;" vertex="1" parent="WIyWlLk6GJQsqaUBKTNV-1">
          <mxGeometry x="650" y="738.5" width="260" height="70" as="geometry" />
        </mxCell>
        <mxCell id="hGQvihbglXmBCSKVw1TI-19" value="页面" style="rounded=1;whiteSpace=wrap;html=1;" vertex="1" parent="WIyWlLk6GJQsqaUBKTNV-1">
          <mxGeometry x="219" y="958.5" width="120" height="60" as="geometry" />
        </mxCell>
      </root>
    </mxGraphModel>
  </diagram>
</mxfile>
